<svg width="12" height="12" viewBox="0 0 12 12" fill="none" xmlns="http://www.w3.org/2000/svg">
<g clip-path="url(#clip0_22_241)">
<path d="M0 0.5H2.382L3.882 6H9.1395L10.6835 1.3675L11.6325 1.684L9.86 7H3.89L3.64 8H11V9H2.36L2.983 6.5055L1.618 1.5H0V0.5ZM7 1V2.5H8.5V3.5H7V5H6V3.5H4.5V2.5H6V1H7ZM2 10.5C2 10.2348 2.10536 9.98043 2.29289 9.79289C2.48043 9.60536 2.73478 9.5 3 9.5C3.26522 9.5 3.51957 9.60536 3.70711 9.79289C3.89464 9.98043 4 10.2348 4 10.5C4 10.7652 3.89464 11.0196 3.70711 11.2071C3.51957 11.3946 3.26522 11.5 3 11.5C2.73478 11.5 2.48043 11.3946 2.29289 11.2071C2.10536 11.0196 2 10.7652 2 10.5ZM9 10.5C9 10.2348 9.10536 9.98043 9.29289 9.79289C9.48043 9.60536 9.73478 9.5 10 9.5C10.2652 9.5 10.5196 9.60536 10.7071 9.79289C10.8946 9.98043 11 10.2348 11 10.5C11 10.7652 10.8946 11.0196 10.7071 11.2071C10.5196 11.3946 10.2652 11.5 10 11.5C9.73478 11.5 9.48043 11.3946 9.29289 11.2071C9.10536 11.0196 9 10.7652 9 10.5Z" fill="#051863"/>
</g>
<defs>
<clipPath id="clip0_22_241">
<rect width="12" height="12" fill="white"/>
</clipPath>
</defs>
</svg>
