<svg width="60" height="60" viewBox="0 0 60 60" fill="none" xmlns="http://www.w3.org/2000/svg">
<path d="M11.9991 46.0994L11.9989 46.0993C10.6511 45.0944 9.42762 43.5187 8.54066 41.7509C7.65364 39.9829 7.125 38.0661 7.125 36.4001V17.8001C7.125 14.1576 9.8215 10.2453 13.2495 8.96866L13.2505 8.9683L25.725 4.29346C25.7251 4.29344 25.7251 4.29342 25.7252 4.29341C26.8912 3.85766 28.4219 3.63135 29.975 3.63135C31.5281 3.63135 33.0588 3.85766 34.2248 4.29341C34.2249 4.29342 34.2249 4.29344 34.225 4.29346L46.6995 8.9683L46.7005 8.96866C50.1285 10.2453 52.825 14.1576 52.825 17.8001V36.3751C52.825 38.0539 52.2962 39.9707 51.4095 41.7349C50.5228 43.4992 49.2994 45.069 47.9511 46.0743L47.9509 46.0744L37.2009 54.0994L37.2009 54.0994L37.1947 54.1041C35.2203 55.6266 32.6323 56.4001 30 56.4001C27.3694 56.4001 24.7775 55.6274 22.749 54.1244C22.7486 54.124 22.7482 54.1237 22.7477 54.1234L11.9991 46.0994ZM26.7002 6.88165L26.6995 6.88189L14.2245 11.5569L14.2238 11.5572C13.0421 12.0021 11.9675 12.956 11.1918 14.0783C10.4159 15.2009 9.9 16.5483 9.9 17.8251V36.4001C9.9 37.6904 10.3502 39.1936 11.0249 40.5398C11.6995 41.8857 12.6308 43.1391 13.6509 43.9007L13.6509 43.9008L24.4006 51.9255C25.9417 53.078 27.9845 53.6376 30.0031 53.6376C32.0219 53.6376 34.07 53.078 35.6228 51.9268L35.6241 51.9258L46.3741 43.9008L46.375 43.9001C47.4064 43.1265 48.3377 41.874 49.0097 40.53C49.6817 39.186 50.125 37.6894 50.125 36.4001V17.8001C50.125 16.5348 49.6083 15.1935 48.8332 14.0721C48.0579 12.9503 46.9848 11.9917 45.806 11.534L45.806 11.534L45.8005 11.5319L33.3255 6.85689L33.3255 6.85681L33.3164 6.8536C32.3949 6.52837 31.1835 6.375 30.0018 6.37822C28.8208 6.38144 27.6127 6.54117 26.7002 6.88165Z" fill="#FAFAFA" stroke="#FAFAFA"/>
<path d="M26.2965 31.4036L26.65 31.7572L27.0036 31.4036L36.4286 21.9786C36.9583 21.4489 37.8417 21.4489 38.3715 21.9786C38.9012 22.5083 38.9012 23.3918 38.3715 23.9215L27.6214 34.6715C27.3452 34.9478 26.9996 35.0751 26.65 35.0751C26.3005 35.0751 25.9548 34.9478 25.6786 34.6715L21.6536 30.6465C21.1238 30.1168 21.1238 29.2333 21.6536 28.7036C22.1833 28.1739 23.0667 28.1739 23.5965 28.7036L26.2965 31.4036Z" fill="#FAFAFA" stroke="#FAFAFA"/>
</svg>
