<svg width="32" height="32" viewBox="0 0 32 32" fill="none" xmlns="http://www.w3.org/2000/svg">
<path d="M4.2951 19C4.25876 18.9928 4.22126 18.9937 4.18531 19.0027C4.14937 19.0117 4.11587 19.0286 4.08726 19.0521C4.05864 19.0757 4.03562 19.1053 4.01985 19.1388C4.00408 19.1723 3.99597 19.209 3.9961 19.246V23.173C3.99615 23.5496 4.10252 23.9185 4.30295 24.2373C4.50339 24.5561 4.78975 24.8118 5.1291 24.975L13.9961 29.241C14.6048 29.5339 15.2716 29.686 15.9471 29.686C16.6226 29.686 17.2894 29.5339 17.8981 29.241L26.7651 24.975C27.1046 24.8117 27.3911 24.5558 27.5915 24.2369C27.7919 23.9179 27.8982 23.5488 27.8981 23.172V19.246C27.8982 19.209 27.8901 19.1723 27.8743 19.1388C27.8586 19.1053 27.8355 19.0757 27.8069 19.0521C27.7783 19.0286 27.7448 19.0117 27.7089 19.0027C27.6729 18.9937 27.6354 18.9928 27.5991 19L15.9471 21.305L4.2951 19Z" fill="url(#paint0_linear_71_400)"/>
<path d="M15.9302 11.913L4.57019 17.193C4.3976 17.2733 4.25153 17.4013 4.14914 17.5617C4.04675 17.7222 3.9923 17.9086 3.99219 18.099V18.897C3.99229 18.9347 4.00305 18.9716 4.02322 19.0034C4.04339 19.0353 4.07215 19.0608 4.10619 19.077L14.6522 24.117C15.0559 24.3098 15.4977 24.4099 15.9452 24.4099C16.3926 24.4099 16.8344 24.3098 17.2382 24.117L27.7842 19.077C27.8182 19.0608 27.847 19.0353 27.8672 19.0034C27.8873 18.9716 27.8981 18.9347 27.8982 18.897V18.1C27.8982 17.9093 27.8437 17.7227 27.7411 17.562C27.6385 17.4013 27.4921 17.2733 27.3192 17.193L15.9612 11.914V11.899L15.9452 11.907L15.9292 11.899V11.914L15.9302 11.913Z" fill="url(#paint1_linear_71_400)"/>
<path d="M15.9302 11.913L4.57019 17.193C4.3976 17.2733 4.25153 17.4013 4.14914 17.5617C4.04675 17.7222 3.9923 17.9086 3.99219 18.099V18.897C3.99229 18.9347 4.00305 18.9716 4.02322 19.0034C4.04339 19.0353 4.07215 19.0608 4.10619 19.077L14.6522 24.117C15.0559 24.3098 15.4977 24.4099 15.9452 24.4099C16.3926 24.4099 16.8344 24.3098 17.2382 24.117L27.7842 19.077C27.8182 19.0608 27.847 19.0353 27.8672 19.0034C27.8873 18.9716 27.8981 18.9347 27.8982 18.897V18.1C27.8982 17.9093 27.8437 17.7227 27.7411 17.562C27.6385 17.4013 27.4921 17.2733 27.3192 17.193L15.9612 11.914V11.899L15.9452 11.907L15.9292 11.899V11.914L15.9302 11.913Z" fill="url(#paint2_linear_71_400)"/>
<path d="M15.9302 11.913L4.57019 17.193C4.3976 17.2733 4.25153 17.4013 4.14914 17.5617C4.04675 17.7222 3.9923 17.9086 3.99219 18.099V18.897C3.99229 18.9347 4.00305 18.9716 4.02322 19.0034C4.04339 19.0353 4.07215 19.0608 4.10619 19.077L14.6522 24.117C15.0559 24.3098 15.4977 24.4099 15.9452 24.4099C16.3926 24.4099 16.8344 24.3098 17.2382 24.117L27.7842 19.077C27.8182 19.0608 27.847 19.0353 27.8672 19.0034C27.8873 18.9716 27.8981 18.9347 27.8982 18.897V18.1C27.8982 17.9093 27.8437 17.7227 27.7411 17.562C27.6385 17.4013 27.4921 17.2733 27.3192 17.193L15.9612 11.914V11.899L15.9452 11.907L15.9292 11.899V11.914L15.9302 11.913Z" fill="url(#paint3_linear_71_400)"/>
<path d="M15.9302 11.913L4.57019 17.193C4.3976 17.2733 4.25153 17.4013 4.14914 17.5617C4.04675 17.7222 3.9923 17.9086 3.99219 18.099V18.897C3.99229 18.9347 4.00305 18.9716 4.02322 19.0034C4.04339 19.0353 4.07215 19.0608 4.10619 19.077L14.6522 24.117C15.0559 24.3098 15.4977 24.4099 15.9452 24.4099C16.3926 24.4099 16.8344 24.3098 17.2382 24.117L27.7842 19.077C27.8182 19.0608 27.847 19.0353 27.8672 19.0034C27.8873 18.9716 27.8981 18.9347 27.8982 18.897V18.1C27.8982 17.9093 27.8437 17.7227 27.7411 17.562C27.6385 17.4013 27.4921 17.2733 27.3192 17.193L15.9612 11.914V11.899L15.9452 11.907L15.9292 11.899V11.914L15.9302 11.913Z" fill="url(#paint4_linear_71_400)"/>
<path d="M15.9302 11.913L4.57019 17.193C4.3976 17.2733 4.25153 17.4013 4.14914 17.5617C4.04675 17.7222 3.9923 17.9086 3.99219 18.099V18.897C3.99229 18.9347 4.00305 18.9716 4.02322 19.0034C4.04339 19.0353 4.07215 19.0608 4.10619 19.077L14.6522 24.117C15.0559 24.3098 15.4977 24.4099 15.9452 24.4099C16.3926 24.4099 16.8344 24.3098 17.2382 24.117L27.7842 19.077C27.8182 19.0608 27.847 19.0353 27.8672 19.0034C27.8873 18.9716 27.8981 18.9347 27.8982 18.897V18.1C27.8982 17.9093 27.8437 17.7227 27.7411 17.562C27.6385 17.4013 27.4921 17.2733 27.3192 17.193L15.9612 11.914V11.899L15.9452 11.907L15.9292 11.899V11.914L15.9302 11.913Z" fill="url(#paint5_radial_71_400)"/>
<g filter="url(#filter0_f_71_400)">
<path d="M17.1904 24.21L27.5354 19.21" stroke="url(#paint6_linear_71_400)" stroke-width="0.2" stroke-linecap="round"/>
</g>
<g filter="url(#filter1_f_71_400)">
<path d="M15.6873 24.34C11.4713 23.435 10.9243 19.426 11.1773 17.535L20.8273 17.696C20.8703 20.288 19.1623 23.791 15.6873 24.34Z" fill="url(#paint7_linear_71_400)"/>
<path d="M15.6873 24.34C11.4713 23.435 10.9243 19.426 11.1773 17.535L20.8273 17.696C20.8703 20.288 19.1623 23.791 15.6873 24.34Z" fill="url(#paint8_radial_71_400)"/>
</g>
<g filter="url(#filter2_f_71_400)">
<path d="M7.94212 20.117C6.76112 19.832 6.60812 18.569 6.67912 17.973L9.38312 18.023C9.39512 18.84 8.91512 19.944 7.94212 20.117Z" fill="url(#paint9_linear_71_400)"/>
</g>
<path d="M4.57019 18.101L15.0872 22.989C15.351 23.1115 15.6383 23.1749 15.9292 23.1749C16.22 23.1749 16.5074 23.1115 16.7712 22.989L27.3192 18.101C27.5223 18.0066 27.6878 17.8467 27.7892 17.647C27.8605 17.787 27.8979 17.9419 27.8982 18.099V18.897C27.8981 18.9347 27.8873 18.9716 27.8672 19.0035C27.847 19.0353 27.8182 19.0608 27.7842 19.077L17.2382 24.117C16.8344 24.3099 16.3926 24.41 15.9452 24.41C15.4977 24.41 15.0559 24.3099 14.6522 24.117L4.10619 19.077C4.07215 19.0608 4.04339 19.0353 4.02322 19.0035C4.00305 18.9716 3.99229 18.9347 3.99219 18.897V18.1C3.99219 17.94 4.03019 17.785 4.10019 17.647C4.20141 17.8471 4.36694 18.0063 4.57019 18.101Z" fill="url(#paint10_linear_71_400)"/>
<g filter="url(#filter3_i_71_400)">
<path d="M11.153 17.356C11.1345 17.4285 11.1251 17.5031 11.125 17.578C11.125 18.713 13.297 19.633 15.976 19.633C18.656 19.633 20.828 18.713 20.828 17.578C20.8279 17.5031 20.8185 17.4285 20.8 17.356C20.5886 16.2313 19.9908 15.2159 19.11 14.4853C18.2292 13.7547 17.1209 13.3548 15.9765 13.3548C14.8321 13.3548 13.7238 13.7547 12.843 14.4853C11.9622 15.2159 11.3644 16.2313 11.153 17.356Z" fill="#4C2F5A"/>
<path d="M11.153 17.356C11.1345 17.4285 11.1251 17.5031 11.125 17.578C11.125 18.713 13.297 19.633 15.976 19.633C18.656 19.633 20.828 18.713 20.828 17.578C20.8279 17.5031 20.8185 17.4285 20.8 17.356C20.5886 16.2313 19.9908 15.2159 19.11 14.4853C18.2292 13.7547 17.1209 13.3548 15.9765 13.3548C14.8321 13.3548 13.7238 13.7547 12.843 14.4853C11.9622 15.2159 11.3644 16.2313 11.153 17.356Z" fill="url(#paint11_radial_71_400)"/>
<path d="M11.153 17.356C11.1345 17.4285 11.1251 17.5031 11.125 17.578C11.125 18.713 13.297 19.633 15.976 19.633C18.656 19.633 20.828 18.713 20.828 17.578C20.8279 17.5031 20.8185 17.4285 20.8 17.356C20.5886 16.2313 19.9908 15.2159 19.11 14.4853C18.2292 13.7547 17.1209 13.3548 15.9765 13.3548C14.8321 13.3548 13.7238 13.7547 12.843 14.4853C11.9622 15.2159 11.3644 16.2313 11.153 17.356Z" fill="url(#paint12_radial_71_400)"/>
<path d="M11.153 17.356C11.1345 17.4285 11.1251 17.5031 11.125 17.578C11.125 18.713 13.297 19.633 15.976 19.633C18.656 19.633 20.828 18.713 20.828 17.578C20.8279 17.5031 20.8185 17.4285 20.8 17.356C20.5886 16.2313 19.9908 15.2159 19.11 14.4853C18.2292 13.7547 17.1209 13.3548 15.9765 13.3548C14.8321 13.3548 13.7238 13.7547 12.843 14.4853C11.9622 15.2159 11.3644 16.2313 11.153 17.356Z" fill="url(#paint13_radial_71_400)"/>
<path d="M11.153 17.356C11.1345 17.4285 11.1251 17.5031 11.125 17.578C11.125 18.713 13.297 19.633 15.976 19.633C18.656 19.633 20.828 18.713 20.828 17.578C20.8279 17.5031 20.8185 17.4285 20.8 17.356C20.5886 16.2313 19.9908 15.2159 19.11 14.4853C18.2292 13.7547 17.1209 13.3548 15.9765 13.3548C14.8321 13.3548 13.7238 13.7547 12.843 14.4853C11.9622 15.2159 11.3644 16.2313 11.153 17.356Z" fill="url(#paint14_radial_71_400)"/>
</g>
<path d="M11.153 17.356C11.1345 17.4285 11.1251 17.5031 11.125 17.578C11.125 18.713 13.297 19.633 15.976 19.633C18.656 19.633 20.828 18.713 20.828 17.578C20.8279 17.5031 20.8185 17.4285 20.8 17.356C20.5886 16.2313 19.9908 15.2159 19.11 14.4853C18.2292 13.7547 17.1209 13.3548 15.9765 13.3548C14.8321 13.3548 13.7238 13.7547 12.843 14.4853C11.9622 15.2159 11.3644 16.2313 11.153 17.356Z" fill="url(#paint15_radial_71_400)"/>
<path d="M11.153 17.356C11.1345 17.4285 11.1251 17.5031 11.125 17.578C11.125 18.713 13.297 19.633 15.976 19.633C18.656 19.633 20.828 18.713 20.828 17.578C20.8279 17.5031 20.8185 17.4285 20.8 17.356C20.5886 16.2313 19.9908 15.2159 19.11 14.4853C18.2292 13.7547 17.1209 13.3548 15.9765 13.3548C14.8321 13.3548 13.7238 13.7547 12.843 14.4853C11.9622 15.2159 11.3644 16.2313 11.153 17.356Z" fill="url(#paint16_radial_71_400)"/>
<g filter="url(#filter4_f_71_400)">
<path d="M7.98824 17.09C8.75824 17.09 9.38324 17.503 9.38324 18.234C9.38324 18.668 8.75824 18.855 7.98824 18.855C7.21824 18.855 6.59424 18.687 6.59424 18.235C6.59424 17.503 7.21824 17.09 7.98824 17.09Z" fill="#50416C"/>
</g>
<path d="M7.98806 16.977C8.72006 16.977 9.31206 17.39 9.31206 18.121C9.31206 18.555 8.72006 18.742 7.98806 18.742C7.25706 18.742 6.66406 18.574 6.66406 18.122C6.66406 17.39 7.25706 16.977 7.98806 16.977Z" fill="url(#paint17_radial_71_400)"/>
<path d="M7.98806 16.977C8.72006 16.977 9.31206 17.39 9.31206 18.121C9.31206 18.555 8.72006 18.742 7.98806 18.742C7.25706 18.742 6.66406 18.574 6.66406 18.122C6.66406 17.39 7.25706 16.977 7.98806 16.977Z" fill="url(#paint18_radial_71_400)"/>
<path d="M7.98806 16.977C8.72006 16.977 9.31206 17.39 9.31206 18.121C9.31206 18.555 8.72006 18.742 7.98806 18.742C7.25706 18.742 6.66406 18.574 6.66406 18.122C6.66406 17.39 7.25706 16.977 7.98806 16.977Z" fill="url(#paint19_radial_71_400)"/>
<path d="M14.9453 9.85999C14.9453 9.59676 15.0499 9.34432 15.236 9.15819C15.4221 8.97206 15.6746 8.86749 15.9378 8.86749C16.201 8.86749 16.4535 8.97206 16.6396 9.15819C16.8257 9.34432 16.9303 9.59676 16.9303 9.85999V14.008C16.9303 14.556 16.4853 14.727 15.9373 14.727C15.3903 14.727 14.9453 14.556 14.9453 14.007V9.85999Z" fill="url(#paint20_linear_71_400)"/>
<path d="M14.9453 9.85999C14.9453 9.59676 15.0499 9.34432 15.236 9.15819C15.4221 8.97206 15.6746 8.86749 15.9378 8.86749C16.201 8.86749 16.4535 8.97206 16.6396 9.15819C16.8257 9.34432 16.9303 9.59676 16.9303 9.85999V14.008C16.9303 14.556 16.4853 14.727 15.9373 14.727C15.3903 14.727 14.9453 14.556 14.9453 14.007V9.85999Z" fill="url(#paint21_radial_71_400)"/>
<path d="M14.9453 9.85999C14.9453 9.59676 15.0499 9.34432 15.236 9.15819C15.4221 8.97206 15.6746 8.86749 15.9378 8.86749C16.201 8.86749 16.4535 8.97206 16.6396 9.15819C16.8257 9.34432 16.9303 9.59676 16.9303 9.85999V14.008C16.9303 14.556 16.4853 14.727 15.9373 14.727C15.3903 14.727 14.9453 14.556 14.9453 14.007V9.85999Z" fill="url(#paint22_radial_71_400)"/>
<path d="M15.9759 10.976C18.5043 10.976 20.554 8.92637 20.554 6.39801C20.554 3.86965 18.5043 1.82001 15.9759 1.82001C13.4476 1.82001 11.3979 3.86965 11.3979 6.39801C11.3979 8.92637 13.4476 10.976 15.9759 10.976Z" fill="url(#paint23_radial_71_400)"/>
<path d="M15.9759 10.976C18.5043 10.976 20.554 8.92637 20.554 6.39801C20.554 3.86965 18.5043 1.82001 15.9759 1.82001C13.4476 1.82001 11.3979 3.86965 11.3979 6.39801C11.3979 8.92637 13.4476 10.976 15.9759 10.976Z" fill="url(#paint24_radial_71_400)"/>
<path d="M15.9759 10.976C18.5043 10.976 20.554 8.92637 20.554 6.39801C20.554 3.86965 18.5043 1.82001 15.9759 1.82001C13.4476 1.82001 11.3979 3.86965 11.3979 6.39801C11.3979 8.92637 13.4476 10.976 15.9759 10.976Z" fill="url(#paint25_radial_71_400)"/>
<g filter="url(#filter5_f_71_400)">
<path d="M27.5351 17.868L16.7221 22.936C16.4846 23.0293 16.2311 23.0748 15.9761 23.07" stroke="#7067A3" stroke-width="0.2" stroke-linecap="round"/>
</g>
<defs>
<filter id="filter0_f_71_400" x="16.8903" y="18.91" width="10.9449" height="5.60007" filterUnits="userSpaceOnUse" color-interpolation-filters="sRGB">
<feFlood flood-opacity="0" result="BackgroundImageFix"/>
<feBlend mode="normal" in="SourceGraphic" in2="BackgroundImageFix" result="shape"/>
<feGaussianBlur stdDeviation="0.1" result="effect1_foregroundBlur_71_400"/>
</filter>
<filter id="filter1_f_71_400" x="10.3755" y="16.785" width="11.2026" height="8.30499" filterUnits="userSpaceOnUse" color-interpolation-filters="sRGB">
<feFlood flood-opacity="0" result="BackgroundImageFix"/>
<feBlend mode="normal" in="SourceGraphic" in2="BackgroundImageFix" result="shape"/>
<feGaussianBlur stdDeviation="0.375" result="effect1_foregroundBlur_71_400"/>
</filter>
<filter id="filter2_f_71_400" x="6.41455" y="17.723" width="3.21875" height="2.64398" filterUnits="userSpaceOnUse" color-interpolation-filters="sRGB">
<feFlood flood-opacity="0" result="BackgroundImageFix"/>
<feBlend mode="normal" in="SourceGraphic" in2="BackgroundImageFix" result="shape"/>
<feGaussianBlur stdDeviation="0.125" result="effect1_foregroundBlur_71_400"/>
</filter>
<filter id="filter3_i_71_400" x="11.125" y="13.2548" width="9.70312" height="6.3782" filterUnits="userSpaceOnUse" color-interpolation-filters="sRGB">
<feFlood flood-opacity="0" result="BackgroundImageFix"/>
<feBlend mode="normal" in="SourceGraphic" in2="BackgroundImageFix" result="shape"/>
<feColorMatrix in="SourceAlpha" type="matrix" values="0 0 0 0 0 0 0 0 0 0 0 0 0 0 0 0 0 0 127 0" result="hardAlpha"/>
<feOffset dy="-0.1"/>
<feGaussianBlur stdDeviation="0.2"/>
<feComposite in2="hardAlpha" operator="arithmetic" k2="-1" k3="1"/>
<feColorMatrix type="matrix" values="0 0 0 0 0.14902 0 0 0 0 0.0862745 0 0 0 0 0.235294 0 0 0 1 0"/>
<feBlend mode="normal" in2="shape" result="effect1_innerShadow_71_400"/>
</filter>
<filter id="filter4_f_71_400" x="6.44424" y="16.94" width="3.08906" height="2.06501" filterUnits="userSpaceOnUse" color-interpolation-filters="sRGB">
<feFlood flood-opacity="0" result="BackgroundImageFix"/>
<feBlend mode="normal" in="SourceGraphic" in2="BackgroundImageFix" result="shape"/>
<feGaussianBlur stdDeviation="0.075" result="effect1_foregroundBlur_71_400"/>
</filter>
<filter id="filter5_f_71_400" x="15.776" y="17.6679" width="11.9593" height="5.6024" filterUnits="userSpaceOnUse" color-interpolation-filters="sRGB">
<feFlood flood-opacity="0" result="BackgroundImageFix"/>
<feBlend mode="normal" in="SourceGraphic" in2="BackgroundImageFix" result="shape"/>
<feGaussianBlur stdDeviation="0.05" result="effect1_foregroundBlur_71_400"/>
</filter>
<linearGradient id="paint0_linear_71_400" x1="5.3751" y1="24.227" x2="26.4721" y2="24.227" gradientUnits="userSpaceOnUse">
<stop stop-color="#2F2137"/>
<stop offset="0.448" stop-color="#38224A"/>
<stop offset="0.568" stop-color="#5D3E7D"/>
</linearGradient>
<linearGradient id="paint1_linear_71_400" x1="26.2422" y1="17.492" x2="3.30519" y2="17.492" gradientUnits="userSpaceOnUse">
<stop stop-color="#615D8D"/>
<stop offset="1" stop-color="#5E5681"/>
</linearGradient>
<linearGradient id="paint2_linear_71_400" x1="26.2422" y1="17.492" x2="3.30519" y2="17.492" gradientUnits="userSpaceOnUse">
<stop stop-color="#615D8D"/>
<stop offset="1" stop-color="#5E5681"/>
</linearGradient>
<linearGradient id="paint3_linear_71_400" x1="9.98419" y1="20.679" x2="10.1482" y2="20.343" gradientUnits="userSpaceOnUse">
<stop offset="0.269" stop-color="#4F3A84"/>
<stop offset="1" stop-color="#534177" stop-opacity="0"/>
</linearGradient>
<linearGradient id="paint4_linear_71_400" x1="21.3212" y1="20.999" x2="21.0912" y2="20.515" gradientUnits="userSpaceOnUse">
<stop offset="0.338" stop-color="#6152A2"/>
<stop offset="1" stop-color="#5F5887" stop-opacity="0"/>
</linearGradient>
<radialGradient id="paint5_radial_71_400" cx="0" cy="0" r="1" gradientUnits="userSpaceOnUse" gradientTransform="translate(16.3652 11.347) rotate(90) scale(5.65532 9.54334)">
<stop stop-color="#6D6F9E"/>
<stop offset="1" stop-color="#6D6F9E" stop-opacity="0"/>
</radialGradient>
<linearGradient id="paint6_linear_71_400" x1="26.5234" y1="19.898" x2="17.8524" y2="24.211" gradientUnits="userSpaceOnUse">
<stop offset="0.896" stop-color="#69597D"/>
<stop offset="1" stop-color="#69597D" stop-opacity="0"/>
</linearGradient>
<linearGradient id="paint7_linear_71_400" x1="15.9763" y1="18.492" x2="15.9763" y2="24.34" gradientUnits="userSpaceOnUse">
<stop stop-color="#4D4277"/>
<stop offset="1" stop-color="#4D4277" stop-opacity="0"/>
</linearGradient>
<radialGradient id="paint8_radial_71_400" cx="0" cy="0" r="1" gradientUnits="userSpaceOnUse" gradientTransform="translate(15.9763 18.117) rotate(90) scale(2.375 5.2725)">
<stop offset="0.329" stop-color="#281E45"/>
<stop offset="1" stop-color="#281E45" stop-opacity="0"/>
</radialGradient>
<linearGradient id="paint9_linear_71_400" x1="8.02312" y1="17.508" x2="8.02312" y2="21.206" gradientUnits="userSpaceOnUse">
<stop stop-color="#4D4277"/>
<stop offset="1" stop-color="#4D4277" stop-opacity="0"/>
</linearGradient>
<linearGradient id="paint10_linear_71_400" x1="26.3362" y1="21.119" x2="3.18919" y2="21.119" gradientUnits="userSpaceOnUse">
<stop offset="0.431" stop-color="#6052A1"/>
<stop offset="0.464" stop-color="#4E3A83"/>
</linearGradient>
<radialGradient id="paint11_radial_71_400" cx="0" cy="0" r="1" gradientUnits="userSpaceOnUse" gradientTransform="translate(16.43 13.3525) rotate(94.126) scale(6.29757 12.0208)">
<stop offset="0.647" stop-color="#442A5D" stop-opacity="0"/>
<stop offset="1" stop-color="#442A5D"/>
</radialGradient>
<radialGradient id="paint12_radial_71_400" cx="0" cy="0" r="1" gradientUnits="userSpaceOnUse" gradientTransform="translate(20.076 15.75) rotate(151.174) scale(4.67961 3.04242)">
<stop stop-color="#6F5A85"/>
<stop offset="1" stop-color="#6F5A85" stop-opacity="0"/>
</radialGradient>
<radialGradient id="paint13_radial_71_400" cx="0" cy="0" r="1" gradientUnits="userSpaceOnUse" gradientTransform="translate(12.8425 13.3522) rotate(101.741) scale(5.63189 3.58864)">
<stop stop-color="#4A3947"/>
<stop offset="1" stop-color="#4A3947" stop-opacity="0"/>
</radialGradient>
<radialGradient id="paint14_radial_71_400" cx="0" cy="0" r="1" gradientUnits="userSpaceOnUse" gradientTransform="translate(15.779 18.633) rotate(-47.5718) scale(5.36144 5.4902)">
<stop offset="0.942" stop-color="#766F8B" stop-opacity="0.082"/>
<stop offset="0.991" stop-color="#766F8B"/>
</radialGradient>
<radialGradient id="paint15_radial_71_400" cx="0" cy="0" r="1" gradientUnits="userSpaceOnUse" gradientTransform="translate(10.9293 17.8675) rotate(-44.236) scale(4.97229 4.86741)">
<stop stop-color="#422E3D"/>
<stop offset="1" stop-color="#422E3D" stop-opacity="0"/>
</radialGradient>
<radialGradient id="paint16_radial_71_400" cx="0" cy="0" r="1" gradientUnits="userSpaceOnUse" gradientTransform="translate(17.0225 18.6486) rotate(-139.07) scale(5.91484 7.01095)">
<stop offset="0.934" stop-color="#50464D" stop-opacity="0"/>
<stop offset="1" stop-color="#50464D"/>
</radialGradient>
<radialGradient id="paint17_radial_71_400" cx="0" cy="0" r="1" gradientUnits="userSpaceOnUse" gradientTransform="translate(9.00806 18.102) rotate(180) scale(2.15625 2.1875)">
<stop stop-color="#FF3389"/>
<stop offset="1" stop-color="#E13B63"/>
</radialGradient>
<radialGradient id="paint18_radial_71_400" cx="0" cy="0" r="1" gradientUnits="userSpaceOnUse" gradientTransform="translate(8.87006 18.162) rotate(168.311) scale(1.13078 0.556123)">
<stop stop-color="#FF5EA3"/>
<stop offset="1" stop-color="#FF5EA3" stop-opacity="0"/>
</radialGradient>
<radialGradient id="paint19_radial_71_400" cx="0" cy="0" r="1" gradientUnits="userSpaceOnUse" gradientTransform="translate(8.61715 17.8604) rotate(166.189) scale(1.93083 1.90247)">
<stop offset="0.677" stop-color="#C52754" stop-opacity="0"/>
<stop offset="1" stop-color="#C52754"/>
</radialGradient>
<linearGradient id="paint20_linear_71_400" x1="15.2733" y1="12.961" x2="17.0863" y2="12.961" gradientUnits="userSpaceOnUse">
<stop stop-color="#DDB7F2"/>
<stop offset="1" stop-color="#F8EBFF"/>
</linearGradient>
<radialGradient id="paint21_radial_71_400" cx="0" cy="0" r="1" gradientUnits="userSpaceOnUse" gradientTransform="translate(16.0833 10.342) scale(1.71905 0.9427)">
<stop stop-color="#BD7CD0"/>
<stop offset="1" stop-color="#BD7CD0" stop-opacity="0"/>
</radialGradient>
<radialGradient id="paint22_radial_71_400" cx="0" cy="0" r="1" gradientUnits="userSpaceOnUse" gradientTransform="translate(15.4033 9.96599) rotate(123.064) scale(3.18369 2.01393)">
<stop offset="0.18" stop-color="#B87EBA"/>
<stop offset="1" stop-color="#BD7CD0" stop-opacity="0"/>
</radialGradient>
<radialGradient id="paint23_radial_71_400" cx="0" cy="0" r="1" gradientUnits="userSpaceOnUse" gradientTransform="translate(18.8048 4.49122) rotate(142.722) scale(5.26263)">
<stop stop-color="#FF78AD"/>
<stop offset="1" stop-color="#FB426F"/>
</radialGradient>
<radialGradient id="paint24_radial_71_400" cx="0" cy="0" r="1" gradientUnits="userSpaceOnUse" gradientTransform="translate(18.6179 6.40001) rotate(-180) scale(7.21875)">
<stop offset="0.543" stop-color="#CC515D" stop-opacity="0"/>
<stop offset="1" stop-color="#CC515D"/>
</radialGradient>
<radialGradient id="paint25_radial_71_400" cx="0" cy="0" r="1" gradientUnits="userSpaceOnUse" gradientTransform="translate(15.9759 3.93001) rotate(90) scale(7.375)">
<stop offset="0.807" stop-color="#B8276B" stop-opacity="0"/>
<stop offset="1" stop-color="#B8276B"/>
</radialGradient>
</defs>
</svg>
