<svg width="194" height="30" viewBox="0 0 194 30" fill="none" xmlns="http://www.w3.org/2000/svg">
<path d="M170.295 18C170.259 17.9927 170.221 17.9936 170.185 18.0026C170.149 18.0117 170.116 18.0285 170.087 18.0521C170.059 18.0756 170.036 18.1052 170.02 18.1388C170.004 18.1723 169.996 18.2089 169.996 18.246V22.173C169.996 22.5496 170.102 22.9185 170.303 23.2372C170.503 23.556 170.79 23.8118 171.129 23.975L179.996 28.241C180.605 28.5339 181.272 28.6859 181.947 28.6859C182.622 28.6859 183.289 28.5339 183.898 28.241L192.765 23.975C193.105 23.8117 193.391 23.5558 193.591 23.2368C193.792 22.9178 193.898 22.5487 193.898 22.172V18.246C193.898 18.2089 193.89 18.1723 193.874 18.1388C193.858 18.1052 193.835 18.0756 193.807 18.0521C193.778 18.0285 193.745 18.0117 193.709 18.0026C193.673 17.9936 193.635 17.9927 193.599 18L181.947 20.305L170.295 18Z" fill="url(#paint0_linear_6_249)"/>
<path d="M181.93 10.913L170.57 16.193C170.397 16.2733 170.251 16.4013 170.149 16.5618C170.047 16.7222 169.992 16.9086 169.992 17.099V17.897C169.992 17.9347 170.003 17.9716 170.023 18.0034C170.043 18.0353 170.072 18.0608 170.106 18.077L180.652 23.117C181.056 23.3098 181.498 23.4099 181.945 23.4099C182.392 23.4099 182.834 23.3098 183.238 23.117L193.784 18.077C193.818 18.0608 193.847 18.0353 193.867 18.0034C193.887 17.9716 193.898 17.9347 193.898 17.897V17.1C193.898 16.9093 193.843 16.7227 193.741 16.562C193.638 16.4013 193.492 16.2733 193.319 16.193L181.961 10.914V10.899L181.945 10.907L181.929 10.899V10.914L181.93 10.913Z" fill="url(#paint1_linear_6_249)"/>
<path d="M181.93 10.913L170.57 16.193C170.397 16.2733 170.251 16.4013 170.149 16.5618C170.047 16.7222 169.992 16.9086 169.992 17.099V17.897C169.992 17.9347 170.003 17.9716 170.023 18.0034C170.043 18.0353 170.072 18.0608 170.106 18.077L180.652 23.117C181.056 23.3098 181.498 23.4099 181.945 23.4099C182.392 23.4099 182.834 23.3098 183.238 23.117L193.784 18.077C193.818 18.0608 193.847 18.0353 193.867 18.0034C193.887 17.9716 193.898 17.9347 193.898 17.897V17.1C193.898 16.9093 193.843 16.7227 193.741 16.562C193.638 16.4013 193.492 16.2733 193.319 16.193L181.961 10.914V10.899L181.945 10.907L181.929 10.899V10.914L181.93 10.913Z" fill="url(#paint2_linear_6_249)"/>
<path d="M181.93 10.913L170.57 16.193C170.397 16.2733 170.251 16.4013 170.149 16.5618C170.047 16.7222 169.992 16.9086 169.992 17.099V17.897C169.992 17.9347 170.003 17.9716 170.023 18.0034C170.043 18.0353 170.072 18.0608 170.106 18.077L180.652 23.117C181.056 23.3098 181.498 23.4099 181.945 23.4099C182.392 23.4099 182.834 23.3098 183.238 23.117L193.784 18.077C193.818 18.0608 193.847 18.0353 193.867 18.0034C193.887 17.9716 193.898 17.9347 193.898 17.897V17.1C193.898 16.9093 193.843 16.7227 193.741 16.562C193.638 16.4013 193.492 16.2733 193.319 16.193L181.961 10.914V10.899L181.945 10.907L181.929 10.899V10.914L181.93 10.913Z" fill="url(#paint3_linear_6_249)"/>
<path d="M181.93 10.913L170.57 16.193C170.397 16.2733 170.251 16.4013 170.149 16.5618C170.047 16.7222 169.992 16.9086 169.992 17.099V17.897C169.992 17.9347 170.003 17.9716 170.023 18.0034C170.043 18.0353 170.072 18.0608 170.106 18.077L180.652 23.117C181.056 23.3098 181.498 23.4099 181.945 23.4099C182.392 23.4099 182.834 23.3098 183.238 23.117L193.784 18.077C193.818 18.0608 193.847 18.0353 193.867 18.0034C193.887 17.9716 193.898 17.9347 193.898 17.897V17.1C193.898 16.9093 193.843 16.7227 193.741 16.562C193.638 16.4013 193.492 16.2733 193.319 16.193L181.961 10.914V10.899L181.945 10.907L181.929 10.899V10.914L181.93 10.913Z" fill="url(#paint4_linear_6_249)"/>
<path d="M181.93 10.913L170.57 16.193C170.397 16.2733 170.251 16.4013 170.149 16.5618C170.047 16.7222 169.992 16.9086 169.992 17.099V17.897C169.992 17.9347 170.003 17.9716 170.023 18.0034C170.043 18.0353 170.072 18.0608 170.106 18.077L180.652 23.117C181.056 23.3098 181.498 23.4099 181.945 23.4099C182.392 23.4099 182.834 23.3098 183.238 23.117L193.784 18.077C193.818 18.0608 193.847 18.0353 193.867 18.0034C193.887 17.9716 193.898 17.9347 193.898 17.897V17.1C193.898 16.9093 193.843 16.7227 193.741 16.562C193.638 16.4013 193.492 16.2733 193.319 16.193L181.961 10.914V10.899L181.945 10.907L181.929 10.899V10.914L181.93 10.913Z" fill="url(#paint5_radial_6_249)"/>
<path d="M181.687 23.34C177.471 22.435 176.924 18.426 177.177 16.535L186.827 16.696C186.87 19.288 185.162 22.791 181.687 23.34Z" fill="url(#paint6_linear_6_249)"/>
<path d="M181.687 23.34C177.471 22.435 176.924 18.426 177.177 16.535L186.827 16.696C186.87 19.288 185.162 22.791 181.687 23.34Z" fill="url(#paint7_radial_6_249)"/>
<path d="M173.942 19.117C172.761 18.832 172.608 17.569 172.679 16.973L175.383 17.023C175.395 17.84 174.915 18.944 173.942 19.117Z" fill="url(#paint8_linear_6_249)"/>
<path d="M170.57 17.101L181.087 21.989C181.351 22.1114 181.638 22.1749 181.929 22.1749C182.22 22.1749 182.507 22.1114 182.771 21.989L193.319 17.101C193.522 17.0066 193.688 16.8467 193.789 16.647C193.86 16.787 193.898 16.9429 193.898 17.1V17.897C193.898 17.9347 193.887 17.9716 193.867 18.0034C193.847 18.0353 193.818 18.0608 193.784 18.077L183.238 23.117C182.834 23.3098 182.392 23.4099 181.945 23.4099C181.498 23.4099 181.056 23.3098 180.652 23.117L170.106 18.077C170.072 18.0608 170.043 18.0353 170.023 18.0034C170.003 17.9716 169.992 17.9347 169.992 17.897V17.099C169.992 16.939 170.03 16.785 170.1 16.647C170.201 16.8471 170.367 17.0063 170.57 17.101Z" fill="url(#paint9_linear_6_249)"/>
<path d="M177.153 16.356C177.134 16.4285 177.125 16.5031 177.125 16.578C177.125 17.713 179.297 18.633 181.976 18.633C184.656 18.633 186.828 17.713 186.828 16.578C186.828 16.5031 186.819 16.4285 186.8 16.356C186.589 15.2313 185.991 14.2159 185.11 13.4853C184.229 12.7547 183.121 12.3548 181.977 12.3548C180.832 12.3548 179.724 12.7547 178.843 13.4853C177.962 14.2159 177.364 15.2313 177.153 16.356Z" fill="#4C2F5A"/>
<path d="M177.153 16.356C177.134 16.4285 177.125 16.5031 177.125 16.578C177.125 17.713 179.297 18.633 181.976 18.633C184.656 18.633 186.828 17.713 186.828 16.578C186.828 16.5031 186.819 16.4285 186.8 16.356C186.589 15.2313 185.991 14.2159 185.11 13.4853C184.229 12.7547 183.121 12.3548 181.977 12.3548C180.832 12.3548 179.724 12.7547 178.843 13.4853C177.962 14.2159 177.364 15.2313 177.153 16.356Z" fill="url(#paint10_radial_6_249)"/>
<path d="M177.153 16.356C177.134 16.4285 177.125 16.5031 177.125 16.578C177.125 17.713 179.297 18.633 181.976 18.633C184.656 18.633 186.828 17.713 186.828 16.578C186.828 16.5031 186.819 16.4285 186.8 16.356C186.589 15.2313 185.991 14.2159 185.11 13.4853C184.229 12.7547 183.121 12.3548 181.977 12.3548C180.832 12.3548 179.724 12.7547 178.843 13.4853C177.962 14.2159 177.364 15.2313 177.153 16.356Z" fill="url(#paint11_radial_6_249)"/>
<path d="M177.153 16.356C177.134 16.4285 177.125 16.5031 177.125 16.578C177.125 17.713 179.297 18.633 181.976 18.633C184.656 18.633 186.828 17.713 186.828 16.578C186.828 16.5031 186.819 16.4285 186.8 16.356C186.589 15.2313 185.991 14.2159 185.11 13.4853C184.229 12.7547 183.121 12.3548 181.977 12.3548C180.832 12.3548 179.724 12.7547 178.843 13.4853C177.962 14.2159 177.364 15.2313 177.153 16.356Z" fill="url(#paint12_radial_6_249)"/>
<path d="M177.153 16.356C177.134 16.4285 177.125 16.5031 177.125 16.578C177.125 17.713 179.297 18.633 181.976 18.633C184.656 18.633 186.828 17.713 186.828 16.578C186.828 16.5031 186.819 16.4285 186.8 16.356C186.589 15.2313 185.991 14.2159 185.11 13.4853C184.229 12.7547 183.121 12.3548 181.977 12.3548C180.832 12.3548 179.724 12.7547 178.843 13.4853C177.962 14.2159 177.364 15.2313 177.153 16.356Z" fill="url(#paint13_radial_6_249)"/>
<path d="M177.153 16.356C177.134 16.4285 177.125 16.5031 177.125 16.578C177.125 17.713 179.297 18.633 181.976 18.633C184.656 18.633 186.828 17.713 186.828 16.578C186.828 16.5031 186.819 16.4285 186.8 16.356C186.589 15.2313 185.991 14.2159 185.11 13.4853C184.229 12.7547 183.121 12.3548 181.977 12.3548C180.832 12.3548 179.724 12.7547 178.843 13.4853C177.962 14.2159 177.364 15.2313 177.153 16.356Z" fill="url(#paint14_radial_6_249)"/>
<path d="M177.153 16.356C177.134 16.4285 177.125 16.5031 177.125 16.578C177.125 17.713 179.297 18.633 181.976 18.633C184.656 18.633 186.828 17.713 186.828 16.578C186.828 16.5031 186.819 16.4285 186.8 16.356C186.589 15.2313 185.991 14.2159 185.11 13.4853C184.229 12.7547 183.121 12.3548 181.977 12.3548C180.832 12.3548 179.724 12.7547 178.843 13.4853C177.962 14.2159 177.364 15.2313 177.153 16.356Z" fill="url(#paint15_radial_6_249)"/>
<path d="M173.988 16.09C174.758 16.09 175.383 16.503 175.383 17.234C175.383 17.668 174.758 17.855 173.988 17.855C173.218 17.855 172.594 17.687 172.594 17.235C172.594 16.503 173.218 16.09 173.988 16.09Z" fill="#50416C"/>
<path d="M173.988 15.977C174.72 15.977 175.312 16.39 175.312 17.121C175.312 17.555 174.72 17.742 173.988 17.742C173.257 17.742 172.664 17.574 172.664 17.122C172.664 16.39 173.257 15.977 173.988 15.977Z" fill="url(#paint16_radial_6_249)"/>
<path d="M173.988 15.977C174.72 15.977 175.312 16.39 175.312 17.121C175.312 17.555 174.72 17.742 173.988 17.742C173.257 17.742 172.664 17.574 172.664 17.122C172.664 16.39 173.257 15.977 173.988 15.977Z" fill="url(#paint17_radial_6_249)"/>
<path d="M173.988 15.977C174.72 15.977 175.312 16.39 175.312 17.121C175.312 17.555 174.72 17.742 173.988 17.742C173.257 17.742 172.664 17.574 172.664 17.122C172.664 16.39 173.257 15.977 173.988 15.977Z" fill="url(#paint18_radial_6_249)"/>
<path d="M180.945 8.85999C180.945 8.59676 181.05 8.34432 181.236 8.15819C181.422 7.97206 181.674 7.86749 181.938 7.86749C182.201 7.86749 182.453 7.97206 182.639 8.15819C182.825 8.34432 182.93 8.59676 182.93 8.85999V13.008C182.93 13.556 182.485 13.727 181.937 13.727C181.39 13.727 180.945 13.556 180.945 13.007V8.85999Z" fill="url(#paint19_linear_6_249)"/>
<path d="M180.945 8.85999C180.945 8.59676 181.05 8.34432 181.236 8.15819C181.422 7.97206 181.674 7.86749 181.938 7.86749C182.201 7.86749 182.453 7.97206 182.639 8.15819C182.825 8.34432 182.93 8.59676 182.93 8.85999V13.008C182.93 13.556 182.485 13.727 181.937 13.727C181.39 13.727 180.945 13.556 180.945 13.007V8.85999Z" fill="url(#paint20_radial_6_249)"/>
<path d="M180.945 8.85999C180.945 8.59676 181.05 8.34432 181.236 8.15819C181.422 7.97206 181.674 7.86749 181.938 7.86749C182.201 7.86749 182.453 7.97206 182.639 8.15819C182.825 8.34432 182.93 8.59676 182.93 8.85999V13.008C182.93 13.556 182.485 13.727 181.937 13.727C181.39 13.727 180.945 13.556 180.945 13.007V8.85999Z" fill="url(#paint21_radial_6_249)"/>
<path d="M181.976 9.97599C184.504 9.97599 186.554 7.92635 186.554 5.39799C186.554 2.86963 184.504 0.819993 181.976 0.819993C179.448 0.819993 177.398 2.86963 177.398 5.39799C177.398 7.92635 179.448 9.97599 181.976 9.97599Z" fill="url(#paint22_radial_6_249)"/>
<path d="M181.976 9.97599C184.504 9.97599 186.554 7.92635 186.554 5.39799C186.554 2.86963 184.504 0.819993 181.976 0.819993C179.448 0.819993 177.398 2.86963 177.398 5.39799C177.398 7.92635 179.448 9.97599 181.976 9.97599Z" fill="url(#paint23_radial_6_249)"/>
<path d="M181.976 9.97599C184.504 9.97599 186.554 7.92635 186.554 5.39799C186.554 2.86963 184.504 0.819993 181.976 0.819993C179.448 0.819993 177.398 2.86963 177.398 5.39799C177.398 7.92635 179.448 9.97599 181.976 9.97599Z" fill="url(#paint24_radial_6_249)"/>
<path d="M6.36001 5.59999V12.6H15.76V17.04H6.36001V24.44H16.96V29H0.76001V1.03999H16.96V5.59999H6.36001Z" fill="white"/>
<path d="M41.4891 9.47999C40.8491 8.30666 39.9691 7.41333 38.8491 6.79999C37.7291 6.18666 36.4224 5.87999 34.9291 5.87999C33.2757 5.87999 31.8091 6.25333 30.5291 6.99999C29.2491 7.74666 28.2491 8.81332 27.5291 10.2C26.8091 11.5867 26.4491 13.1867 26.4491 15C26.4491 16.8667 26.8091 18.4933 27.5291 19.88C28.2757 21.2667 29.3024 22.3333 30.6091 23.08C31.9157 23.8267 33.4357 24.2 35.1691 24.2C37.3024 24.2 39.0491 23.64 40.4091 22.52C41.7691 21.3733 42.6624 19.7867 43.0891 17.76H33.4891V13.48H48.6091V18.36C48.2357 20.3067 47.4357 22.1067 46.2091 23.76C44.9824 25.4133 43.3957 26.7467 41.4491 27.76C39.5291 28.7467 37.3691 29.24 34.9691 29.24C32.2757 29.24 29.8357 28.64 27.6491 27.44C25.4891 26.2133 23.7824 24.52 22.5291 22.36C21.3024 20.2 20.6891 17.7467 20.6891 15C20.6891 12.2533 21.3024 9.79999 22.5291 7.63999C23.7824 5.45332 25.4891 3.75999 27.6491 2.55999C29.8357 1.33333 32.2624 0.719992 34.9291 0.719992C38.0757 0.719992 40.8091 1.49333 43.1291 3.03999C45.4491 4.55999 47.0491 6.70666 47.9291 9.47999H41.4891Z" fill="white"/>
<path d="M69.8722 23.68H58.7522L56.9122 29H51.0322L61.0722 1.03999H67.5922L77.6322 29H71.7122L69.8722 23.68ZM68.3522 19.2L64.3122 7.51999L60.2722 19.2H68.3522Z" fill="white"/>
<path d="M111.825 1.07999V29H106.225V10.84L98.745 29H94.505L86.985 10.84V29H81.385V1.07999H87.745L96.625 21.84L105.505 1.07999H111.825Z" fill="white"/>
<path d="M122.962 5.59999V12.6H132.362V17.04H122.962V24.44H133.562V29H117.362V1.03999H133.562V5.59999H122.962Z" fill="white"/>
<path d="M148.291 29.28C146.344 29.28 144.584 28.9467 143.011 28.28C141.464 27.6133 140.237 26.6533 139.331 25.4C138.424 24.1467 137.957 22.6667 137.931 20.96H143.931C144.011 22.1067 144.411 23.0133 145.131 23.68C145.877 24.3467 146.891 24.68 148.171 24.68C149.477 24.68 150.504 24.3733 151.251 23.76C151.997 23.12 152.371 22.2933 152.371 21.28C152.371 20.4533 152.117 19.7733 151.611 19.24C151.104 18.7067 150.464 18.2933 149.691 18C148.944 17.68 147.904 17.3333 146.571 16.96C144.757 16.4267 143.277 15.9067 142.131 15.4C141.011 14.8667 140.037 14.08 139.211 13.04C138.411 11.9733 138.011 10.56 138.011 8.79999C138.011 7.14666 138.424 5.70666 139.251 4.47999C140.077 3.25332 141.237 2.31999 142.731 1.67999C144.224 1.01333 145.931 0.679993 147.851 0.679993C150.731 0.679993 153.064 1.38666 154.851 2.79999C156.664 4.18666 157.664 6.13332 157.851 8.63999H151.691C151.637 7.67999 151.224 6.89333 150.451 6.27999C149.704 5.63999 148.704 5.31999 147.451 5.31999C146.357 5.31999 145.477 5.59999 144.811 6.15999C144.171 6.71999 143.851 7.53333 143.851 8.59999C143.851 9.34666 144.091 9.97333 144.571 10.48C145.077 10.96 145.691 11.36 146.411 11.68C147.157 11.9733 148.197 12.32 149.531 12.72C151.344 13.2533 152.824 13.7867 153.971 14.32C155.117 14.8533 156.104 15.6533 156.931 16.72C157.757 17.7867 158.171 19.1867 158.171 20.92C158.171 22.4133 157.784 23.8 157.011 25.08C156.237 26.36 155.104 27.3867 153.611 28.16C152.117 28.9067 150.344 29.28 148.291 29.28Z" fill="white"/>
<defs>
<linearGradient id="paint0_linear_6_249" x1="11.9029" y1="14.6762" x2="182.375" y2="14.6762" gradientUnits="userSpaceOnUse">
<stop stop-color="#2F2137"/>
<stop offset="0.448" stop-color="#38224A"/>
<stop offset="0.568" stop-color="#5D3E7D"/>
</linearGradient>
<linearGradient id="paint1_linear_6_249" x1="180.519" y1="13.4656" x2="-4.79031" y2="13.4656" gradientUnits="userSpaceOnUse">
<stop stop-color="#615D8D"/>
<stop offset="1" stop-color="#5E5681"/>
</linearGradient>
<linearGradient id="paint2_linear_6_249" x1="180.519" y1="13.4656" x2="-4.79031" y2="13.4656" gradientUnits="userSpaceOnUse">
<stop stop-color="#615D8D"/>
<stop offset="1" stop-color="#5E5681"/>
</linearGradient>
<linearGradient id="paint3_linear_6_249" x1="49.1697" y1="20.7511" x2="49.2986" y2="19.8178" gradientUnits="userSpaceOnUse">
<stop offset="0.269" stop-color="#4F3A84"/>
<stop offset="1" stop-color="#534177" stop-opacity="0"/>
</linearGradient>
<linearGradient id="paint4_linear_6_249" x1="140.762" y1="21.4826" x2="140.583" y2="20.1504" gradientUnits="userSpaceOnUse">
<stop offset="0.338" stop-color="#6152A2"/>
<stop offset="1" stop-color="#5F5887" stop-opacity="0"/>
</linearGradient>
<radialGradient id="paint5_radial_6_249" cx="0" cy="0" r="1" gradientUnits="userSpaceOnUse" gradientTransform="translate(100.722 -0.581879) rotate(90) scale(12.9281 77.1012)">
<stop stop-color="#6D6F9E"/>
<stop offset="1" stop-color="#6D6F9E" stop-opacity="0"/>
</radialGradient>
<linearGradient id="paint6_linear_6_249" x1="97.3193" y1="4.70206" x2="97.3193" y2="29.28" gradientUnits="userSpaceOnUse">
<stop stop-color="#4D4277"/>
<stop offset="1" stop-color="#4D4277" stop-opacity="0"/>
</linearGradient>
<radialGradient id="paint7_radial_6_249" cx="0" cy="0" r="1" gradientUnits="userSpaceOnUse" gradientTransform="translate(97.3193 3.12602) rotate(90) scale(9.98163 104.953)">
<stop offset="0.329" stop-color="#281E45"/>
<stop offset="1" stop-color="#281E45" stop-opacity="0"/>
</radialGradient>
<linearGradient id="paint8_linear_6_249" x1="97.2704" y1="-5.5229" x2="97.2704" y2="43.8068" gradientUnits="userSpaceOnUse">
<stop stop-color="#4D4277"/>
<stop offset="1" stop-color="#4D4277" stop-opacity="0"/>
</linearGradient>
<linearGradient id="paint9_linear_6_249" x1="181.279" y1="15.3628" x2="-5.72748" y2="15.3628" gradientUnits="userSpaceOnUse">
<stop offset="0.431" stop-color="#6052A1"/>
<stop offset="0.464" stop-color="#4E3A83"/>
</linearGradient>
<radialGradient id="paint10_radial_6_249" cx="0" cy="0" r="1" gradientUnits="userSpaceOnUse" gradientTransform="translate(106.356 0.669524) rotate(107.495) scale(30.0017 228.799)">
<stop offset="0.647" stop-color="#442A5D" stop-opacity="0"/>
<stop offset="1" stop-color="#442A5D"/>
</radialGradient>
<radialGradient id="paint11_radial_6_249" cx="0" cy="0" r="1" gradientUnits="userSpaceOnUse" gradientTransform="translate(178.929 11.5912) rotate(172.821) scale(82.2502 15.6959)">
<stop stop-color="#6F5A85"/>
<stop offset="1" stop-color="#6F5A85" stop-opacity="0"/>
</radialGradient>
<radialGradient id="paint12_radial_6_249" cx="0" cy="0" r="1" gradientUnits="userSpaceOnUse" gradientTransform="translate(34.9463 0.668175) rotate(132.244) scale(33.9313 54.0104)">
<stop stop-color="#4A3947"/>
<stop offset="1" stop-color="#4A3947" stop-opacity="0"/>
</radialGradient>
<radialGradient id="paint13_radial_6_249" cx="0" cy="0" r="1" gradientUnits="userSpaceOnUse" gradientTransform="translate(93.3978 24.7245) rotate(-14.0571) scale(74.2225 35.9606)">
<stop offset="0.942" stop-color="#766F8B" stop-opacity="0.082"/>
<stop offset="0.991" stop-color="#766F8B"/>
</radialGradient>
<radialGradient id="paint14_radial_6_249" cx="0" cy="0" r="1" gradientUnits="userSpaceOnUse" gradientTransform="translate(-3.13463 21.2372) rotate(-12.5624) scale(72.6509 30.2069)">
<stop stop-color="#422E3D"/>
<stop offset="1" stop-color="#422E3D" stop-opacity="0"/>
</radialGradient>
<radialGradient id="paint15_radial_6_249" cx="0" cy="0" r="1" gradientUnits="userSpaceOnUse" gradientTransform="translate(118.151 24.7957) rotate(-168.775) scale(90.6846 41.4649)">
<stop offset="0.934" stop-color="#50464D" stop-opacity="0"/>
<stop offset="1" stop-color="#50464D"/>
</radialGradient>
<radialGradient id="paint16_radial_6_249" cx="0" cy="0" r="1" gradientUnits="userSpaceOnUse" gradientTransform="translate(171.725 18.9095) rotate(180) scale(157.271 35.4462)">
<stop stop-color="#FF3389"/>
<stop offset="1" stop-color="#E13B63"/>
</radialGradient>
<radialGradient id="paint17_radial_6_249" cx="0" cy="0" r="1" gradientUnits="userSpaceOnUse" gradientTransform="translate(161.66 19.8817) rotate(177.368) scale(80.8509 9.19254)">
<stop stop-color="#FF5EA3"/>
<stop offset="1" stop-color="#FF5EA3" stop-opacity="0"/>
</radialGradient>
<radialGradient id="paint18_radial_6_249" cx="0" cy="0" r="1" gradientUnits="userSpaceOnUse" gradientTransform="translate(143.213 14.9942) rotate(176.874) scale(136.962 31.6981)">
<stop offset="0.677" stop-color="#C52754" stop-opacity="0"/>
<stop offset="1" stop-color="#C52754"/>
</radialGradient>
<linearGradient id="paint19_linear_6_249" x1="32.674" y1="20.6602" x2="209.077" y2="20.6602" gradientUnits="userSpaceOnUse">
<stop stop-color="#DDB7F2"/>
<stop offset="1" stop-color="#F8EBFF"/>
</linearGradient>
<radialGradient id="paint20_radial_6_249" cx="0" cy="0" r="1" gradientUnits="userSpaceOnUse" gradientTransform="translate(111.486 7.87697) scale(167.261 4.60128)">
<stop stop-color="#BD7CD0"/>
<stop offset="1" stop-color="#BD7CD0" stop-opacity="0"/>
</radialGradient>
<radialGradient id="paint21_radial_6_249" cx="0" cy="0" r="1" gradientUnits="userSpaceOnUse" gradientTransform="translate(45.3228 6.04173) rotate(175.594) scale(169.503 17.9643)">
<stop offset="0.18" stop-color="#B87EBA"/>
<stop offset="1" stop-color="#BD7CD0" stop-opacity="0"/>
</radialGradient>
<radialGradient id="paint22_radial_6_249" cx="0" cy="0" r="1" gradientUnits="userSpaceOnUse" gradientTransform="translate(157.001 9.02388) rotate(173.569) scale(88.8912 20.5291)">
<stop stop-color="#FF78AD"/>
<stop offset="1" stop-color="#FB426F"/>
</radialGradient>
<radialGradient id="paint23_radial_6_249" cx="0" cy="0" r="1" gradientUnits="userSpaceOnUse" gradientTransform="translate(153.06 14.9862) rotate(-180) scale(152.273 22.5487)">
<stop offset="0.543" stop-color="#CC515D" stop-opacity="0"/>
<stop offset="1" stop-color="#CC515D"/>
</radialGradient>
<radialGradient id="paint24_radial_6_249" cx="0" cy="0" r="1" gradientUnits="userSpaceOnUse" gradientTransform="translate(97.329 7.27086) rotate(90) scale(23.0368 155.569)">
<stop offset="0.807" stop-color="#B8276B" stop-opacity="0"/>
<stop offset="1" stop-color="#B8276B"/>
</radialGradient>
</defs>
</svg>
